<svg width="599" height="166" viewBox="0 0 599 166" fill="none" xmlns="http://www.w3.org/2000/svg">
<g clip-path="url(#clip0)">
<path d="M79.6135 66.6905C79.6135 58.4062 86.3293 51.6905 94.6135 51.6905H129.59C137.874 51.6905 144.59 58.4062 144.59 66.6905V116.667H79.6135V66.6905Z" fill="#94847C"/>
<path d="M61.7451 83.3663H79.6135V129.662V129.662C69.745 129.662 61.7451 121.662 61.7451 111.793V83.3663Z" fill="#94847C"/>
<path d="M61.7451 83.3663H79.6135V111.793C79.6135 116.728 75.6135 120.728 70.6793 120.728V120.728C65.745 120.728 61.7451 116.728 61.7451 111.793V83.3663Z" fill="#CBC5C1"/>
<path d="M79.6135 116.667H144.59V116.667C144.59 123.844 138.771 129.662 131.594 129.662H79.6135V116.667Z" fill="#94847C"/>
<circle cx="113.32" cy="88.6456" r="10.1525" fill="white"/>
<path fill-rule="evenodd" clip-rule="evenodd" d="M157.982 43.5666C158.123 43.7966 158.581 45.083 156.849 48.5104C155.238 51.7002 152.217 55.7098 147.827 60.2828C146.811 61.3408 145.731 62.4198 144.59 63.5164C139.206 68.6896 132.459 74.2531 124.691 79.8341L126.734 83.3663C133.48 78.5367 139.505 73.6969 144.59 69.073C157.742 57.1137 164.611 46.5988 161.442 41.4407C157.621 35.2208 140.254 38.5022 118.439 48.5104L128.748 48.5104C132.185 47.1483 135.445 45.9977 138.481 45.0717C144.544 43.2221 149.486 42.3389 153.06 42.3429C156.9 42.3472 157.841 43.3366 157.982 43.5666ZM101.949 99.066C86.7795 107.54 72.5556 113.476 61.7451 116.12C51.8304 118.545 44.7868 118.202 42.5179 114.509C39.4351 109.491 45.8509 99.4055 58.3084 87.8518L58.3084 93.4659C57.5539 94.2087 56.8285 94.9427 56.1333 95.6668C51.7433 100.24 48.7221 104.249 47.1106 107.439C45.3792 110.867 45.8367 112.153 45.978 112.383C46.1193 112.613 47.0601 113.602 50.9 113.607C53.7094 113.61 57.3645 113.065 61.7451 111.933C62.9369 111.625 64.1824 111.273 65.4792 110.878C75.1241 107.936 87.0346 102.726 99.7066 95.6668L101.949 99.066Z" fill="white"/>
<path d="M192.845 103C192.505 103 192.199 102.881 191.927 102.643C191.689 102.371 191.57 102.065 191.57 101.725V68.575C191.57 68.201 191.689 67.895 191.927 67.657C192.199 67.419 192.505 67.3 192.845 67.3H198.251C199.101 67.3 199.679 67.623 199.985 68.269L212.429 87.853V68.575C212.429 68.201 212.548 67.895 212.786 67.657C213.058 67.419 213.364 67.3 213.704 67.3H219.824C220.198 67.3 220.504 67.419 220.742 67.657C220.98 67.895 221.099 68.201 221.099 68.575V101.674C221.099 102.048 220.98 102.371 220.742 102.643C220.504 102.881 220.198 103 219.824 103H214.367C213.619 103 213.058 102.677 212.684 102.031L200.24 83.161V101.725C200.24 102.065 200.121 102.371 199.883 102.643C199.645 102.881 199.339 103 198.965 103H192.845ZM244.801 103C244.461 103 244.155 102.881 243.883 102.643C243.645 102.371 243.526 102.065 243.526 101.725V68.575C243.526 68.201 243.645 67.895 243.883 67.657C244.155 67.419 244.461 67.3 244.801 67.3H268.618C268.992 67.3 269.298 67.419 269.536 67.657C269.774 67.895 269.893 68.201 269.893 68.575V73.369C269.893 73.709 269.774 74.015 269.536 74.287C269.298 74.525 268.992 74.644 268.618 74.644H252.349V81.529H267.496C267.87 81.529 268.176 81.665 268.414 81.937C268.652 82.175 268.771 82.481 268.771 82.855V87.292C268.771 87.632 268.652 87.938 268.414 88.21C268.176 88.448 267.87 88.567 267.496 88.567H252.349V95.656H269.026C269.4 95.656 269.706 95.775 269.944 96.013C270.182 96.251 270.301 96.557 270.301 96.931V101.725C270.301 102.065 270.182 102.371 269.944 102.643C269.706 102.881 269.4 103 269.026 103H244.801ZM297.111 103C296.533 103 296.074 102.847 295.734 102.541C295.394 102.201 295.19 101.793 295.122 101.317L289.563 68.728C289.529 68.626 289.512 68.507 289.512 68.371C289.512 68.099 289.614 67.861 289.818 67.657C290.056 67.419 290.311 67.3 290.583 67.3H296.907C297.859 67.3 298.386 67.674 298.488 68.422L301.803 88.312L305.475 76.582C305.849 75.664 306.41 75.205 307.158 75.205H310.83C311.68 75.205 312.241 75.664 312.513 76.582L316.185 88.312L319.5 68.422C319.602 67.674 320.129 67.3 321.081 67.3H327.405C327.711 67.3 327.966 67.419 328.17 67.657C328.408 67.861 328.527 68.099 328.527 68.371L328.476 68.728L322.917 101.317C322.849 101.793 322.628 102.201 322.254 102.541C321.914 102.847 321.472 103 320.928 103H316.083C315.539 103 315.114 102.864 314.808 102.592C314.502 102.32 314.281 102.014 314.145 101.674L308.994 87.088L303.843 101.674C303.537 102.558 302.908 103 301.956 103H297.111ZM362.194 103.51C358.964 103.51 356.193 103.034 353.881 102.082C351.569 101.13 349.818 99.889 348.628 98.359C347.472 96.795 346.86 95.095 346.792 93.259C346.792 92.987 346.894 92.749 347.098 92.545C347.336 92.307 347.608 92.188 347.914 92.188H354.34C354.748 92.188 355.071 92.273 355.309 92.443C355.581 92.579 355.853 92.8 356.125 93.106C356.567 93.99 357.281 94.721 358.267 95.299C359.253 95.877 360.562 96.166 362.194 96.166C364.132 96.166 365.611 95.86 366.631 95.248C367.651 94.636 368.161 93.803 368.161 92.749C368.161 92.001 367.889 91.389 367.345 90.913C366.835 90.437 366.019 90.012 364.897 89.638C363.775 89.264 362.109 88.839 359.899 88.363C355.819 87.513 352.759 86.272 350.719 84.64C348.713 82.974 347.71 80.611 347.71 77.551C347.71 75.477 348.288 73.624 349.444 71.992C350.6 70.36 352.249 69.085 354.391 68.167C356.533 67.249 359.032 66.79 361.888 66.79C364.846 66.79 367.413 67.3 369.589 68.32C371.765 69.34 373.414 70.632 374.536 72.196C375.692 73.726 376.304 75.239 376.372 76.735C376.372 77.041 376.27 77.296 376.066 77.5C375.862 77.704 375.607 77.806 375.301 77.806H368.569C368.161 77.806 367.821 77.738 367.549 77.602C367.311 77.466 367.09 77.245 366.886 76.939C366.682 76.157 366.121 75.494 365.203 74.95C364.319 74.406 363.214 74.134 361.888 74.134C360.358 74.134 359.185 74.406 358.369 74.95C357.553 75.494 357.145 76.293 357.145 77.347C357.145 78.061 357.366 78.656 357.808 79.132C358.284 79.608 359.032 80.05 360.052 80.458C361.106 80.832 362.602 81.223 364.54 81.631C367.702 82.209 370.218 82.94 372.088 83.824C373.992 84.674 375.386 85.796 376.27 87.19C377.154 88.55 377.596 90.267 377.596 92.341C377.596 94.619 376.933 96.608 375.607 98.308C374.315 99.974 372.496 101.266 370.15 102.184C367.838 103.068 365.186 103.51 362.194 103.51ZM425.433 103C425.093 103 424.787 102.881 424.515 102.643C424.277 102.371 424.158 102.065 424.158 101.725V68.575C424.158 68.201 424.277 67.895 424.515 67.657C424.787 67.419 425.093 67.3 425.433 67.3H430.839C431.689 67.3 432.267 67.623 432.573 68.269L445.017 87.853V68.575C445.017 68.201 445.136 67.895 445.374 67.657C445.646 67.419 445.952 67.3 446.292 67.3H452.412C452.786 67.3 453.092 67.419 453.33 67.657C453.568 67.895 453.687 68.201 453.687 68.575V101.674C453.687 102.048 453.568 102.371 453.33 102.643C453.092 102.881 452.786 103 452.412 103H446.955C446.207 103 445.646 102.677 445.272 102.031L432.828 83.161V101.725C432.828 102.065 432.709 102.371 432.471 102.643C432.233 102.881 431.927 103 431.553 103H425.433ZM477.389 103C477.049 103 476.743 102.881 476.471 102.643C476.233 102.371 476.114 102.065 476.114 101.725V68.575C476.114 68.201 476.233 67.895 476.471 67.657C476.743 67.419 477.049 67.3 477.389 67.3H501.206C501.58 67.3 501.886 67.419 502.124 67.657C502.362 67.895 502.481 68.201 502.481 68.575V73.369C502.481 73.709 502.362 74.015 502.124 74.287C501.886 74.525 501.58 74.644 501.206 74.644H484.937V81.529H500.084C500.458 81.529 500.764 81.665 501.002 81.937C501.24 82.175 501.359 82.481 501.359 82.855V87.292C501.359 87.632 501.24 87.938 501.002 88.21C500.764 88.448 500.458 88.567 500.084 88.567H484.937V95.656H501.614C501.988 95.656 502.294 95.775 502.532 96.013C502.77 96.251 502.889 96.557 502.889 96.931V101.725C502.889 102.065 502.77 102.371 502.532 102.643C502.294 102.881 501.988 103 501.614 103H477.389ZM533.115 103C532.775 103 532.469 102.881 532.197 102.643C531.959 102.371 531.84 102.065 531.84 101.725V75.307H522.762C522.422 75.307 522.116 75.188 521.844 74.95C521.606 74.678 521.487 74.372 521.487 74.032V68.575C521.487 68.201 521.606 67.895 521.844 67.657C522.116 67.419 522.422 67.3 522.762 67.3H550.2C550.574 67.3 550.88 67.419 551.118 67.657C551.356 67.895 551.475 68.201 551.475 68.575V74.032C551.475 74.406 551.356 74.712 551.118 74.95C550.88 75.188 550.574 75.307 550.2 75.307H541.122V101.725C541.122 102.065 541.003 102.371 540.765 102.643C540.527 102.881 540.221 103 539.847 103H533.115Z" fill="white"/>
</g>
<defs>
<clipPath id="clip0">
<rect width="599" height="166" fill="white"/>
</clipPath>
</defs>
</svg>
