<svg width="166" height="166" viewBox="0 0 166 166" fill="none" xmlns="http://www.w3.org/2000/svg">
<g clip-path="url(#clip0)">
<path d="M53.3915 55.6927C53.3915 47.4085 60.1073 40.6927 68.3915 40.6927H118.392C126.676 40.6927 133.392 47.4085 133.392 55.6927V120.693H53.3915V55.6927Z" fill="#94847C"/>
<path d="M31.3915 79.6927H53.3915V136.693H49.3915C39.4504 136.693 31.3915 128.634 31.3915 118.693V79.6927Z" fill="#94847C"/>
<path d="M31.3915 79.6927H53.3915V114.693C53.3915 120.768 48.4667 125.693 42.3915 125.693V125.693C36.3164 125.693 31.3915 120.768 31.3915 114.693V79.6927Z" fill="#CBC5C1"/>
<path d="M53.3915 120.693H133.392V121.693C133.392 129.977 126.676 136.693 118.392 136.693H53.3915V120.693Z" fill="#94847C"/>
<circle cx="94.8915" cy="86.1927" r="12.5" fill="#CBC5C1"/>
<path fill-rule="evenodd" clip-rule="evenodd" d="M149.881 30.6905C150.055 30.9737 150.618 32.5575 148.486 36.7774C146.502 40.7047 142.782 45.6415 137.377 51.2718C136.127 52.5744 134.797 53.903 133.392 55.2531C126.763 61.6225 118.456 68.4723 108.892 75.3438L111.407 79.6927C119.713 73.7464 127.131 67.7875 133.392 62.0945C149.585 47.3699 158.043 34.4238 154.141 28.073C149.436 20.415 128.054 24.4551 101.194 36.7774L113.887 36.7774C118.119 35.1003 122.133 33.6837 125.87 32.5436C133.335 30.2663 139.42 29.1789 143.82 29.1838C148.548 29.1891 149.707 30.4073 149.881 30.6905ZM80.8916 99.0225C62.2144 109.456 44.7017 116.765 31.3916 120.02C19.1844 123.006 10.5122 122.583 7.71863 118.036C3.92306 111.859 11.8223 99.4405 27.1602 85.2154L27.1602 92.1276C26.2312 93.0421 25.3382 93.9458 24.4823 94.8374C19.0772 100.468 15.3574 105.404 13.3733 109.332C11.2415 113.552 11.8048 115.135 11.9788 115.419C12.1528 115.702 13.3111 116.92 18.0389 116.925C21.4978 116.929 25.9981 116.258 31.3916 114.864C32.8589 114.485 34.3924 114.053 35.989 113.566C47.864 109.943 62.5285 103.529 78.1306 94.8374L80.8916 99.0225Z" fill="#5371BB"/>
</g>
<defs>
<clipPath id="clip0">
<rect width="166" height="166" fill="white"/>
</clipPath>
</defs>
</svg>
